<?xml version="1.0" encoding="UTF-8" standalone="no"?>
<svg
   xmlns:dc="http://purl.org/dc/elements/1.1/"
   xmlns:cc="http://creativecommons.org/ns#"
   xmlns:rdf="http://www.w3.org/1999/02/22-rdf-syntax-ns#"
   xmlns:svg="http://www.w3.org/2000/svg"
   xmlns="http://www.w3.org/2000/svg"
   xmlns:sodipodi="http://sodipodi.sourceforge.net/DTD/sodipodi-0.dtd"
   xmlns:inkscape="http://www.inkscape.org/namespaces/inkscape"
   version="1.1"
   x="0px"
   y="0px"
   viewBox="0 0 50 50"
   enable-background="new 0 0 90 90"
   xml:space="preserve"
   id="svg5261"
   inkscape:version="0.91 r13725"
   sodipodi:docname="formulario.svg"
   width="50"
   height="50"><metadata
     id="metadata5285"><rdf:RDF><cc:Work
         rdf:about=""><dc:format>image/svg+xml</dc:format><dc:type
           rdf:resource="http://purl.org/dc/dcmitype/StillImage" /><dc:title></dc:title></cc:Work></rdf:RDF></metadata><defs
     id="defs5283" /><sodipodi:namedview
     pagecolor="#ffffff"
     bordercolor="#666666"
     borderopacity="1"
     objecttolerance="10"
     gridtolerance="10"
     guidetolerance="10"
     inkscape:pageopacity="0"
     inkscape:pageshadow="2"
     inkscape:window-width="1366"
     inkscape:window-height="744"
     id="namedview5281"
     showgrid="false"
     inkscape:zoom="2.0977778"
     inkscape:cx="45"
     inkscape:cy="56.25"
     inkscape:window-x="0"
     inkscape:window-y="24"
     inkscape:window-maximized="1"
     inkscape:current-layer="layer1" /><g
     id="g5834"
     transform="matrix(0.64021555,0,0,0.64021555,-4.4815088,-3.7539261)"
     style="fill:#444444;fill-opacity:1"><path
       id="path5263"
       d="m 78.5,15.5 c -2.1,-1.9 -5.6,-1.6 -7.4,0.4 l -5.4,6.1 0,0 -25,28.8 c -0.3,0.4 -0.5,0.8 -0.5,1.3 L 39,62.8 c -0.1,0.7 0.2,1.5 0.8,2 0.4,0.4 1,0.6 1.5,0.6 0.2,0 0.4,0 0.5,-0.1 l 10.5,-2.5 c 0.5,-0.1 0.9,-0.4 1.2,-0.7 L 80,31.6 83.8,27.3 c 1.9,-2.2 1.7,-5.5 -0.5,-7.4 l -4.8,-4.4 z m -4,3.5 c 0.3,-0.4 0.6,-0.3 0.9,-0.1 l 4.9,4.4 c 0.3,0.2 0.3,0.6 0.1,0.9 L 78.1,26.8 72.2,21.6 74.5,19 Z M 44.3,57 47,59.4 44,60.1 44.3,57 Z m 7.3,0.3 -5.9,-5.2 23.4,-27 5.9,5.2 -23.4,27 z"
       inkscape:connector-curvature="0"
       style="fill:#444444;fill-opacity:1" /><path
       id="path5265"
       d="m 68.1,52.4 c -1.3,0 -2.3,1 -2.3,2.3 l 0,16.4 -54.2,0 0,-49 44.1,0 c 1.3,0 2.3,-1 2.3,-2.3 0,-1.3 -1,-2.3 -2.3,-2.3 l -44.6,0 C 8.8,17.5 7,19.4 7,21.6 l 0,49.9 c 0,2.3 1.9,4.1 4.1,4.1 l 55.1,0 c 2.3,0 4.1,-1.9 4.1,-4.1 l 0,-16.8 c 0.1,-1.2 -1,-2.3 -2.2,-2.3 z"
       inkscape:connector-curvature="0"
       style="fill:#444444;fill-opacity:1" /><path
       id="path5267"
       d="m 18.1,39.6 9.4,0 c 1.3,0 2.3,-1 2.3,-2.3 0,-1.3 -1,-2.3 -2.3,-2.3 l -9.4,0 c -1.3,0 -2.3,1 -2.3,2.3 0,1.2 1,2.3 2.3,2.3 z"
       inkscape:connector-curvature="0"
       style="fill:#444444;fill-opacity:1" /><path
       id="path5269"
       d="m 43.6,28.2 c 0,-1.3 -1,-2.3 -2.3,-2.3 l -23.2,0 c -1.3,0 -2.3,1 -2.3,2.3 0,1.3 1,2.3 2.3,2.3 l 23.2,0 c 1.3,0 2.3,-1 2.3,-2.3 z"
       inkscape:connector-curvature="0"
       style="fill:#444444;fill-opacity:1" /><path
       id="path5271"
       d="M 37.8,46.3 C 37.8,45 36.8,44 35.5,44 l -17,0 c -1.3,0 -2.3,1 -2.3,2.3 0,1.3 1,2.3 2.3,2.3 l 17,0 c 1.3,0 2.3,-1 2.3,-2.3 z"
       inkscape:connector-curvature="0"
       style="fill:#444444;fill-opacity:1" /><path
       id="path5273"
       d="m 18.5,57.7 5.5,0 c 1.3,0 2.3,-1 2.3,-2.3 0,-1.3 -1,-2.3 -2.3,-2.3 l -5.5,0 c -1.3,0 -2.3,1 -2.3,2.3 0,1.3 1,2.3 2.3,2.3 z"
       inkscape:connector-curvature="0"
       style="fill:#444444;fill-opacity:1" /><path
       id="path5275"
       d="m 18.5,66.7 10.2,0 c 1.3,0 2.3,-1 2.3,-2.3 0,-1.3 -1,-2.3 -2.3,-2.3 l -10.2,0 c -1.3,0 -2.3,1 -2.3,2.3 0,1.3 1,2.3 2.3,2.3 z"
       inkscape:connector-curvature="0"
       style="fill:#444444;fill-opacity:1" /></g><path
     d="m 17.601562,38.85547 0,0.17187 c 0.233032,-0.0179 0.466126,-0.0354 0.699219,-0.0527 l 0,-0.11914 -0.699219,0 z m -6.064453,0.27539 0,0.33008 c 0.233697,-0.0184 0.467408,-0.0351 0.701172,-0.0527 l 0,-0.27734 -0.701172,0 z"
     id="text5277"
     inkscape:connector-curvature="0"
     style="fill:#444444;fill-opacity:1" /><g
     inkscape:groupmode="layer"
     id="layer1"
     inkscape:label="Fondo" /></svg>