<?xml version="1.0" encoding="UTF-8" standalone="no"?>
<svg
   xmlns:dc="http://purl.org/dc/elements/1.1/"
   xmlns:cc="http://creativecommons.org/ns#"
   xmlns:rdf="http://www.w3.org/1999/02/22-rdf-syntax-ns#"
   xmlns:svg="http://www.w3.org/2000/svg"
   xmlns="http://www.w3.org/2000/svg"
   xmlns:sodipodi="http://sodipodi.sourceforge.net/DTD/sodipodi-0.dtd"
   xmlns:inkscape="http://www.inkscape.org/namespaces/inkscape"
   version="1.1"
   x="0px"
   y="0px"
   viewBox="0 0 100 100"
   enable-background="new 0 0 100 100"
   xml:space="preserve"
   id="svg2"
   inkscape:version="0.91 r13725"
   sodipodi:docname="legal.svg"
   width="100"
   height="100"><metadata
     id="metadata126"><rdf:RDF><cc:Work
         rdf:about=""><dc:format>image/svg+xml</dc:format><dc:type
           rdf:resource="http://purl.org/dc/dcmitype/StillImage" /><dc:title></dc:title></cc:Work></rdf:RDF></metadata><defs
     id="defs124" /><sodipodi:namedview
     pagecolor="#ffffff"
     bordercolor="#666666"
     borderopacity="1"
     objecttolerance="10"
     gridtolerance="10"
     guidetolerance="10"
     inkscape:pageopacity="0"
     inkscape:pageshadow="2"
     inkscape:window-width="1366"
     inkscape:window-height="744"
     id="namedview122"
     showgrid="false"
     inkscape:zoom="1.888"
     inkscape:cx="28.283898"
     inkscape:cy="11.627524"
     inkscape:window-x="0"
     inkscape:window-y="24"
     inkscape:window-maximized="1"
     inkscape:current-layer="svg2" /><g
     id="g114"
     style="fill:#444444;fill-opacity:1"
     transform="translate(-0.0695,-6.9375)"><path
       d="m 99.986,58.781 -17.162,-33.377 -0.865,-1.688 0,-0.695 c -8.643,2.493 -18.668,4.012 -29.384,4.218 -0.339,-0.934 -0.722,-1.865 -1.196,-2.798 1.106,-1.293 1.764,-2.915 1.764,-4.673 0,-2.374 -1.195,-4.494 -3.07,-5.896 -1.875,1.402 -3.072,3.523 -3.072,5.896 0,1.758 0.658,3.377 1.762,4.67 -0.479,0.934 -0.861,1.868 -1.2,2.805 C 36.847,27.04 26.832,25.535 18.19,23.042 l 0,0.638 -0.887,1.72 -17.164,33.381 0,0.004 c 0.003,0.007 0.007,0.017 0.013,0.022 3.636,5.91 10.43,9.882 18.218,9.882 7.748,0 14.522,-3.936 18.165,-9.805 0.016,-0.023 0.029,-0.047 0.046,-0.07 L 36.564,58.781 19.4,25.404 18.822,24.271 c 7.588,3.879 17.141,6.372 27.617,6.837 -0.095,0.422 -0.178,0.844 -0.258,1.27 -0.289,1.559 -0.466,3.118 -0.555,4.677 -0.106,1.559 -0.053,3.118 0.283,4.676 0.641,3.118 2.263,6.235 2.556,9.354 0.176,1.559 0.126,3.117 -0.07,4.676 -0.193,1.559 -0.599,3.118 -1.054,4.677 -0.462,1.559 -0.951,3.118 -1.283,4.677 -0.366,1.56 -0.509,3.117 -0.702,4.677 -0.189,1.559 -0.382,3.118 -0.515,4.677 -0.126,1.559 -0.18,3.121 -0.1,4.68 0.156,3.117 0.645,6.235 1.383,9.354 0.386,1.559 0.825,3.117 1.383,4.677 0.13,0.358 0.262,0.718 0.406,1.076 -11.467,0.253 -21.27,2.523 -26.179,5.747 l 56.671,0 c -4.912,-3.224 -14.711,-5.491 -26.178,-5.747 0.143,-0.358 0.275,-0.718 0.405,-1.076 0.558,-1.56 0.997,-3.118 1.383,-4.677 0.737,-3.118 1.227,-6.236 1.383,-9.354 0.079,-1.559 0.026,-3.121 -0.101,-4.68 -0.133,-1.559 -0.328,-3.118 -0.515,-4.677 -0.192,-1.56 -0.336,-3.117 -0.702,-4.677 -0.332,-1.559 -0.82,-3.118 -1.282,-4.677 -0.456,-1.559 -0.86,-3.118 -1.054,-4.677 -0.196,-1.559 -0.246,-3.117 -0.07,-4.676 0.293,-3.119 1.916,-6.236 2.557,-9.354 0.336,-1.558 0.389,-3.117 0.283,-4.676 -0.091,-1.559 -0.268,-3.118 -0.556,-4.677 -0.08,-0.425 -0.166,-0.851 -0.26,-1.273 10.479,-0.476 20.036,-2.975 27.622,-6.867 l -0.6,1.164 -17.16,33.381 0,0.004 c 0,0.007 0.006,0.017 0.01,0.022 3.639,5.91 10.434,9.882 18.219,9.882 7.75,0 14.523,-3.936 18.168,-9.805 0.016,-0.023 0.029,-0.047 0.043,-0.07 l -0.014,-0.035 z m -67.547,0 -28.175,0 14.092,-33.291 14.083,33.291 z m 35.249,0 14.093,-33.291 14.08,33.291 -28.173,0 z"
       id="path116"
       style="fill:#444444;fill-opacity:1"
       inkscape:connector-curvature="0" /></g></svg>