<?xml version="1.0" encoding="UTF-8" standalone="no"?>
<svg
   xmlns:dc="http://purl.org/dc/elements/1.1/"
   xmlns:cc="http://creativecommons.org/ns#"
   xmlns:rdf="http://www.w3.org/1999/02/22-rdf-syntax-ns#"
   xmlns:svg="http://www.w3.org/2000/svg"
   xmlns="http://www.w3.org/2000/svg"
   xmlns:sodipodi="http://sodipodi.sourceforge.net/DTD/sodipodi-0.dtd"
   xmlns:inkscape="http://www.inkscape.org/namespaces/inkscape"
   version="1.1"
   x="0px"
   y="0px"
   viewBox="0 0 100 100"
   enable-background="new 0 0 100 100"
   xml:space="preserve"
   id="svg2"
   inkscape:version="0.91 r13725"
   sodipodi:docname="moto.svg"
   width="100"
   height="100"><metadata
     id="metadata16"><rdf:RDF><cc:Work
         rdf:about=""><dc:format>image/svg+xml</dc:format><dc:type
           rdf:resource="http://purl.org/dc/dcmitype/StillImage" /><dc:title></dc:title></cc:Work></rdf:RDF></metadata><defs
     id="defs14" /><sodipodi:namedview
     pagecolor="#ffffff"
     bordercolor="#666666"
     borderopacity="1"
     objecttolerance="10"
     gridtolerance="10"
     guidetolerance="10"
     inkscape:pageopacity="0"
     inkscape:pageshadow="2"
     inkscape:window-width="1366"
     inkscape:window-height="744"
     id="namedview12"
     showgrid="false"
     showborder="true"
     inkscape:zoom="1.888"
     inkscape:cx="50"
     inkscape:cy="24.744435"
     inkscape:window-x="0"
     inkscape:window-y="24"
     inkscape:window-maximized="1"
     inkscape:current-layer="svg2" /><g
     id="g4"
     transform="translate(-0.542,-3.2575)"
     style="fill:#444444;fill-opacity:1"><path
       d="m 79.192,51.804 c -2.274,0 -4.402,0.623 -6.227,1.703 l -0.188,-0.189 c 0,0 -1.991,-1.171 0.394,-3.199 2.385,-2.028 7.255,-1.521 9.128,-1.521 2.237,0 2.779,-0.706 2.779,-2.529 0,-4.566 -7.496,-15.845 -14.148,-15.845 -0.758,0 -1.614,2.212 -2.516,4.677 l -2.177,-1.658 c -0.046,-1.251 -1.67,-2.258 -3.671,-2.258 -2.029,0 -3.675,1.036 -3.675,2.313 0,1.277 1.646,2.312 3.675,2.312 0.531,0 1.034,-0.072 1.489,-0.199 l 2.877,3.375 c -0.673,1.566 -1.354,2.717 -2.021,2.717 -2.091,0 -3.485,-4.436 -11.785,-4.436 -8.3,0 -14.192,4.436 -19.832,4.436 -5.64,0 -10.279,-2.041 -15.03,-2.041 -4.751,0 -6.221,2.028 -6.221,3.485 0,1.457 16.263,4.129 16.263,10.371 l -0.188,0.189 c -1.824,-1.08 -3.953,-1.703 -6.227,-1.703 -6.762,0 -12.244,5.481 -12.244,12.244 0,6.762 5.481,12.243 12.244,12.243 6.762,0 12.243,-5.481 12.243,-12.243 0,-2.274 -0.622,-4.402 -1.702,-6.227 l 0.188,-0.188 5.299,0 c 0,0 0.57,3.448 2.978,6.932 2.408,3.485 4.701,4.786 8.883,4.786 l 7.189,0 c 4.751,0 6.484,-5.039 7.118,-7.657 0.634,-2.618 0.95,-4.062 2.281,-4.062 1.331,0 2.096,0 2.096,0 l 0.188,0.188 c -1.08,1.825 -1.702,3.953 -1.702,6.227 0,6.762 5.481,12.243 12.243,12.243 6.763,0 12.244,-5.481 12.244,-12.243 C 91.436,57.285 85.955,51.804 79.192,51.804 Z m -57.3,18.265 c -3.326,0 -6.023,-2.696 -6.023,-6.021 0,-3.326 2.697,-6.022 6.023,-6.022 0.523,0 1.031,0.067 1.516,0.192 l -3.729,3.729 c -1.191,1.191 -1.191,3.123 0,4.314 1.191,1.191 3.123,1.191 4.314,-10e-4 l 3.728,-3.728 c 0.125,0.484 0.193,0.992 0.193,1.516 0,3.325 -2.697,6.021 -6.022,6.021 z m 57.3,0 c -3.326,0 -6.021,-2.696 -6.021,-6.021 0,-0.524 0.067,-1.032 0.192,-1.516 l 3.728,3.729 c 1.191,1.191 3.123,1.191 4.314,0 1.191,-1.192 1.191,-3.123 0,-4.314 l -3.728,-3.729 c 0.485,-0.125 0.992,-0.192 1.516,-0.192 3.326,0 6.023,2.696 6.023,6.023 -10e-4,3.324 -2.697,6.02 -6.024,6.02 z"
       id="path6"
       inkscape:connector-curvature="0"
       style="fill:#444444;fill-opacity:1" /></g></svg>