<?xml version="1.0" encoding="UTF-8" standalone="no"?>
<svg
   xmlns:dc="http://purl.org/dc/elements/1.1/"
   xmlns:cc="http://creativecommons.org/ns#"
   xmlns:rdf="http://www.w3.org/1999/02/22-rdf-syntax-ns#"
   xmlns:svg="http://www.w3.org/2000/svg"
   xmlns="http://www.w3.org/2000/svg"
   xmlns:sodipodi="http://sodipodi.sourceforge.net/DTD/sodipodi-0.dtd"
   xmlns:inkscape="http://www.inkscape.org/namespaces/inkscape"
   version="1.1"
   x="0px"
   y="0px"
   viewBox="0 0 100 100"
   enable-background="new 0 0 100 100"
   xml:space="preserve"
   id="svg4195"
   inkscape:version="0.91 r13725"
   sodipodi:docname="moto1.svg"><metadata
     id="metadata4203"><rdf:RDF><cc:Work
         rdf:about=""><dc:format>image/svg+xml</dc:format><dc:type
           rdf:resource="http://purl.org/dc/dcmitype/StillImage" /><dc:title></dc:title></cc:Work></rdf:RDF></metadata><defs
     id="defs4201" /><sodipodi:namedview
     pagecolor="#ffffff"
     bordercolor="#666666"
     borderopacity="1"
     objecttolerance="10"
     gridtolerance="10"
     guidetolerance="10"
     inkscape:pageopacity="0"
     inkscape:pageshadow="2"
     inkscape:window-width="1366"
     inkscape:window-height="744"
     id="namedview4199"
     showgrid="false"
     inkscape:zoom="2.36"
     inkscape:cx="50"
     inkscape:cy="50"
     inkscape:window-x="0"
     inkscape:window-y="24"
     inkscape:window-maximized="1"
     inkscape:current-layer="svg4195" /><path
     d="m 94.8415,65.646 -0.351,-1.773 -0.536,-1.709 -0.764,-1.646 -0.919,-1.523 -1.114,-1.417 -1.296,-1.269 -1.401,-1.11 0.775,-1.237 -4.641,-4.623 -2.325,0.727 -1.752,0.542 -1.81,0.281 -1.811,0.096 -1.842,-0.154 -1.773,-0.35 -1.747,-0.573 -1.65,-0.791 -2.798,1.492 0.286,-1.587 0,-1.646 -0.286,-1.582 -1.715,-3.292 -1.874,-3.169 -2.098,-3.042 -2.282,-2.915 -2.687,-3.058 -2.362,-2.326 0.377,-1.173 0.191,-1.205 -0.031,-1.237 -0.224,-1.2 -0.282,-0.977 -0.445,-0.95 -0.669,-0.829 -0.791,-0.695 -0.892,-0.504 -0.987,-0.351 -1.046,-0.159 -1.173,-0.095 -1.179,0.159 -1.109,0.414 -0.982,0.632 -0.917,0.917 -0.732,1.078 -0.574,1.141 -0.409,1.237 -0.191,1.258 1.492,0 0.191,2.155 0.159,0.695 0.313,0.669 0.472,0.536 0.605,0.414 0.669,0.25 0.727,0.091 0.669,0 0.478,1.778 -9.312,9.662 -2.161,-0.668 -2.187,-0.441 -2.256,-0.191 -2.256,0 -2.251,0.255 -2.192,0.472 -2.161,0.669 1.333,8.425 3.371,1.486 -1.842,2.505 -1.625,-0.727 -1.714,-0.573 -1.747,-0.313 -1.81,-0.127 -1.778,0.064 -1.874,0.313 0,1.524 -1.715,0.567 -1.619,0.791 -1.523,0.982 -1.364,1.168 -1.206,1.365 -0.988,1.486 -0.823,1.619 -0.573,1.71 -0.377,1.741 -0.127,1.805 0.127,1.806 0.35,1.772 0.568,1.71 0.791,1.613 0.987,1.492 1.205,1.358 1.365,1.174 1.497,1.014 1.619,0.787 1.715,0.573 1.747,0.351 1.805,0.121 1.81,-0.121 1.779,-0.351 1.688,-0.573 1.619,-0.818 1.524,-0.981 1.332,-1.205 1.179,-1.359 1.014,-1.492 0.796,-1.613 1.582,0 0.51,-1.768 0.318,-1.773 0.096,-1.842 -0.127,-1.837 -0.35,-1.773 -0.573,-1.741 -0.759,-1.678 -0.982,-1.556 -1.142,-1.422 2.033,-1.996 7.108,6.237 -0.223,1.269 0,1.264 0.191,1.264 0.414,1.205 0.318,1.237 0.537,1.173 0.732,1.046 0.892,0.918 1.045,0.723 1.168,0.573 1.433,0.377 21.251,0.095 0,0.006 0.797,1.613 1.014,1.524 1.21,1.358 1.364,1.174 1.486,1.014 1.619,0.791 1.752,0.604 1.779,0.346 1.81,0.09 1.811,-0.116 1.778,-0.351 1.715,-0.604 1.619,-0.823 1.497,-1.014 1.332,-1.206 1.2,-1.39 0.987,-1.519 0.76,-1.614 0.573,-1.741 1.523,0 0.287,-1.773 0.095,-1.805 -0.157,-1.781 z m -67.947,2.745 -0.191,1.231 -0.409,1.205 -0.605,1.142 -0.732,1.009 -0.913,0.887 -1.02,0.759 -1.141,0.573 -1.21,0.378 -1.269,0.223 -1.264,0 -1.242,-0.191 -1.205,-0.409 -1.146,-0.573 -1.046,-0.727 -0.923,-0.887 -0.728,-1.015 -0.6,-1.109 -0.415,-1.199 -0.223,-1.264 -0.032,-1.269 0.191,-1.27 0.382,-1.205 0.536,-1.136 0.727,-1.04 0.86,-0.924 1.019,-0.76 1.11,-0.6 1.205,-0.445 1.274,-0.213 1.269,-0.063 1.237,0.153 1.237,0.346 -1.614,2.251 -0.005,0 -1.115,-0.16 -1.109,0.096 -1.051,0.287 -0.982,0.504 -0.892,0.696 -0.696,0.854 -0.536,0.955 -0.319,1.078 -0.127,1.066 0.095,1.109 0.351,1.078 0.509,0.95 0.728,0.854 0.854,0.701 0.982,0.505 1.083,0.318 1.078,0.062 1.115,-0.127 1.046,-0.35 0.987,-0.536 0.818,-0.733 0.668,-0.886 0.478,-0.982 0.287,-1.078 0.059,-1.099 -0.16,-1.11 -0.371,-1.045 -0.574,-0.95 1.869,-1.837 0.733,1.045 0.536,1.137 0.383,1.2 0.191,1.269 -0.032,1.271 z m 22.754,-20.402 -6.609,-3.96 5.149,-3.514 4.38,5.447 -2.92,2.027 z m 16.393,20.783 -3.785,0 -2.602,-2.978 6.514,0 -0.19,1.491 0.063,1.487 z m 21.814,-0.062 -0.286,1.269 -0.479,1.236 -0.637,1.137 -0.855,0.986 -0.981,0.888 -1.109,0.689 -1.205,0.51 -1.274,0.281 -1.332,0.096 -1.307,-0.096 -1.268,-0.312 -1.206,-0.505 -1.115,-0.728 -0.977,-0.854 -0.828,-1.014 -0.637,-1.142 2.224,-1.396 0.511,0.951 0.669,0.854 0.822,0.701 0.956,0.505 1.014,0.318 1.083,0.121 1.04,-0.062 1.052,-0.282 0.98,-0.472 0.829,-0.669 0.731,-0.791 0.537,-0.95 0.35,-1.015 0.154,-1.045 -0.063,-1.078 -0.249,-1.046 -0.446,-0.977 -0.76,-1.014 2.093,-1.519 0.981,1.093 0.351,1.132 0.541,1.57 0.16,1.333 -0.064,1.297 z"
     id="path4197"
     inkscape:connector-curvature="0" /></svg>