<?xml version="1.0" encoding="UTF-8" standalone="no"?>
<svg
   xmlns:dc="http://purl.org/dc/elements/1.1/"
   xmlns:cc="http://creativecommons.org/ns#"
   xmlns:rdf="http://www.w3.org/1999/02/22-rdf-syntax-ns#"
   xmlns:svg="http://www.w3.org/2000/svg"
   xmlns="http://www.w3.org/2000/svg"
   xmlns:sodipodi="http://sodipodi.sourceforge.net/DTD/sodipodi-0.dtd"
   xmlns:inkscape="http://www.inkscape.org/namespaces/inkscape"
   version="1.1"
   x="0px"
   y="0px"
   viewBox="0 0 100 100"
   enable-background="new 0 0 100 100"
   xml:space="preserve"
   id="svg5029"
   inkscape:version="0.91 r13725"
   sodipodi:docname="piston.svg"
   width="100"
   height="100"><metadata
     id="metadata5047"><rdf:RDF><cc:Work
         rdf:about=""><dc:format>image/svg+xml</dc:format><dc:type
           rdf:resource="http://purl.org/dc/dcmitype/StillImage" /><dc:title></dc:title></cc:Work></rdf:RDF></metadata><defs
     id="defs5045" /><sodipodi:namedview
     pagecolor="#ffffff"
     bordercolor="#666666"
     borderopacity="1"
     objecttolerance="10"
     gridtolerance="10"
     guidetolerance="10"
     inkscape:pageopacity="0"
     inkscape:pageshadow="2"
     inkscape:window-width="1366"
     inkscape:window-height="744"
     id="namedview5043"
     showgrid="false"
     inkscape:zoom="1.888"
     inkscape:cx="-41.101695"
     inkscape:cy="62.5"
     inkscape:window-x="0"
     inkscape:window-y="24"
     inkscape:window-maximized="1"
     inkscape:current-layer="svg5029" /><g
     id="g5031"
     style="fill:#444444;fill-opacity:1"
     transform="translate(0.26087579,-0.10343958)"><path
       d="m 89.479,76.539 -1.063,-2.028 c 0,0 -1.304,-0.725 0.29,-2.319 -0.628,-1.208 -1.257,-2.56 -1.257,-2.56 l -1.11,-0.387 -3.912,-3.96 c 0,0 0.193,-0.918 -0.097,-1.354 -0.387,-0.725 -0.967,-1.206 -0.967,-1.206 l -0.965,-1.063 -1.306,-0.579 -0.628,0.24 -0.965,0.049 c 0,0 -1.594,-0.386 -2.174,1.063 -0.29,0.579 -0.436,0.917 -0.436,0.917 0,0 -0.519,0.862 -1.581,1.152 L 58.544,42.514 c 0.601,-0.491 0.745,-0.851 0.745,-0.851 1.666,-1.159 3.332,-2.68 5.217,-6.521 0.289,-0.942 0.145,-1.231 0.289,-2.825 0.271,-1.028 0.811,-3.741 3.744,-5.337 0.213,0.137 0.96,0.582 1.449,0.41 0.748,-0.459 2.367,-1.304 2.464,-1.399 C 71.689,24.149 67.747,16.292 64.29,9.947 63.291,12.1 61.799,14.384 60.619,15.931 56.661,21.18 47.346,28.004 46.951,28.292 34.867,36.301 29.222,38.239 24.687,39.796 l -0.278,0.096 c -3.124,1.042 -6.125,1.386 -8.446,1.458 4.66,5.328 11.229,12.63 11.229,12.63 l 1.738,2.392 c 0,0 0.942,1.738 3.623,2.318 1.667,0.507 3.405,0.724 3.405,0.724 0,0 1.063,-0.747 1.666,-1.206 -0.289,-0.555 -0.192,-2.173 0.75,-2.342 1.643,-0.773 3.888,-0.241 4.758,-2.755 0.507,-1.956 0.434,-3.333 3.188,-5.651 0.169,-0.104 0.347,-0.222 0.532,-0.342 l 15.843,26.425 c 0,0 0.266,-0.628 -0.604,3.044 -0.241,1.062 -0.58,1.787 -0.58,1.787 0,0 0.097,0.678 -1.594,1.692 -0.821,0.725 -2.416,1.061 -0.483,3.959 0.918,1.692 9.082,12.561 9.082,12.561 l 3.38,2.414 0.918,-1.11 1.062,-0.435 3.188,-4.251 c 0,0 4.733,-1.4 7.004,-5.265 1.014,-1.788 2.753,-4.733 3.092,-7.68 0.628,-0.87 1.979,-2.513 1.979,-2.513 l -0.386,-0.676 0.726,-0.531 z m -27.45,-45.215 0.013,-0.003 c 0,0 2.047,-0.87 2.228,1.63 0.035,0.51 -0.469,2.442 -2.279,2.002 -0.419,1.655 -1.141,2.626 -2.242,3.692 -2.393,2.101 -4.661,1.206 -4.661,1.206 6.473,-0.846 6.327,-6.979 6.254,-8.017 -0.532,-3.745 -3.743,-4.903 -4.153,-5.193 3.164,0.418 4.386,2.81 4.84,4.683 z M 52.518,30.53 c 1.675,-1.116 2.146,-1.477 2.839,-2.017 2.729,-0.434 4.692,1.995 4.692,4.79 0,2.797 -1.858,5.063 -4.147,5.063 -2.292,0 -4.148,-2.267 -4.148,-5.063 -10e-4,-1.036 0.323,-1.969 0.764,-2.773 z m 17.253,39.779 c -2.994,3.042 -3.912,0.144 -3.912,0.144 L 51.119,45.887 c 0.118,-0.006 0.219,-0.019 0.345,-0.021 2.066,-0.305 3.73,-0.775 5.71,-2.241 3.136,4.746 12.857,19.477 14.191,21.659 1.594,2.028 0.386,3.043 -1.594,5.025 z m 16.013,10.093 c -0.362,3.334 -2.488,6.449 -3.72,7.874 -1.231,1.424 -3.381,2.705 -5.265,2.874 -4.95,-0.169 -4.807,-5.362 -4.807,-5.362 0.073,1.28 1.377,3.115 2.078,3.646 1.859,0.845 3.694,-0.047 4.201,-0.362 1.907,-1.062 3.261,-2.512 3.551,-3.066 2.029,-2.682 2.149,-4.202 2.342,-5.435 0.869,-5.096 -0.893,-6.447 -1.545,-6.955 -2.939,-1.263 -4.646,-0.045 -5.556,0.493 0.453,7.479 -5.022,10.567 -5.022,10.567 0.47,-7.232 4.442,-10.095 4.976,-10.539 -0.031,0.019 -0.069,0.043 -0.098,0.058 3.09,-2.56 4.541,-1.933 5.628,-1.787 3.334,0.579 3.478,5.434 3.237,7.994 z"
       id="path5033"
       style="fill:#444444;fill-opacity:1"
       inkscape:connector-curvature="0" /><path
       d="M 45.197,24.881 C 49.498,21.949 57.261,16.652 62.484,6.7 61.811,5.516 61.191,4.469 60.657,3.62 60.692,3.168 60.619,2.772 60.413,2.453 c -1.632,-3.755 -14.287,1.39 -27.805,9.896 -0.286,0.182 -3.916,1.577 -4.909,2.252 -2.355,1.702 -3.551,2.646 -5.182,3.84 -0.869,0.761 -1.79,2.359 -2.805,3.21 -6.89,5.772 -10.784,10.819 -9.454,12.896 0.187,0.292 0.5,0.492 0.872,0.649 0.327,0.592 0.784,1.31 1.425,2.191 0.143,0.172 0.301,0.359 0.466,0.555 2.869,0.204 13.217,-0.222 32.176,-13.061 z M 52.027,6.268 C 55.418,4.596 58.709,4.276 59.178,4.565 59.863,4.986 56.491,6.391 53.1,8.063 49.709,9.734 46.656,10.469 46.278,9.704 45.899,8.936 48.637,7.938 52.027,6.268 Z M 39.543,9.277 c 2.91,-1.436 5.411,-2.308 5.587,-1.95 0.176,0.356 -2.041,1.808 -4.949,3.242 -2.91,1.435 -5.411,2.31 -5.587,1.953 -0.177,-0.357 2.039,-1.81 4.949,-3.245 z M 27.77,22.26 c 2.905,-2.696 5.99,-4.092 6.894,-3.119 0.903,0.974 -0.718,3.945 -3.623,6.643 -2.903,2.696 -5.991,4.092 -6.894,3.119 -0.905,-0.974 0.719,-3.948 3.623,-6.643 z m -3.228,-2.324 c 0.708,0.708 -0.588,3.155 -2.896,5.467 -2.309,2.31 -4.755,3.608 -5.463,2.9 -0.71,-0.708 0.589,-3.156 2.896,-5.467 2.309,-2.311 4.754,-3.609 5.463,-2.9 z"
       id="path5035"
       style="fill:#444444;fill-opacity:1"
       inkscape:connector-curvature="0" /><path
       d="M 24.311,38.701 C 28.784,37.166 34.35,35.254 46.29,27.341 49.562,24.952 56.609,19.324 59.696,15.231 60.99,13.533 62.672,10.933 63.589,8.667 63.443,8.403 63.297,8.143 63.154,7.887 57.812,17.666 50.143,22.835 45.849,25.764 28.463,37.534 18.248,39 14.086,39 c -0.011,0 -0.018,0 -0.028,0 0.284,0 0.583,0.753 0.897,1.115 2.335,10e-4 5.655,-0.217 9.082,-1.358 l 0.274,-0.056 z"
       id="path5037"
       style="fill:#444444;fill-opacity:1"
       inkscape:connector-curvature="0" /></g><path
     d="m 51.871094,92.58594 c 0.116781,0.0736 0.231064,0.15299 0.34375,0.23437 l 0.15039,0 0,-0.23437 c -0.164689,-6e-5 -0.32945,3e-5 -0.49414,0 z"
     id="text5041"
     inkscape:connector-curvature="0" /></svg>