<?xml version="1.0" encoding="UTF-8" standalone="no"?>
<svg
   xmlns:dc="http://purl.org/dc/elements/1.1/"
   xmlns:cc="http://creativecommons.org/ns#"
   xmlns:rdf="http://www.w3.org/1999/02/22-rdf-syntax-ns#"
   xmlns:svg="http://www.w3.org/2000/svg"
   xmlns="http://www.w3.org/2000/svg"
   xmlns:sodipodi="http://sodipodi.sourceforge.net/DTD/sodipodi-0.dtd"
   xmlns:inkscape="http://www.inkscape.org/namespaces/inkscape"
   version="1.1"
   x="0px"
   y="0px"
   viewBox="0 0 100 100"
   enable-background="new 0 0 100 88.637"
   xml:space="preserve"
   id="svg5678"
   inkscape:version="0.91 r13725"
   sodipodi:docname="profesor.svg"
   width="100"
   height="100"><metadata
     id="metadata5696"><rdf:RDF><cc:Work
         rdf:about=""><dc:format>image/svg+xml</dc:format><dc:type
           rdf:resource="http://purl.org/dc/dcmitype/StillImage" /><dc:title></dc:title></cc:Work></rdf:RDF></metadata><defs
     id="defs5694" /><sodipodi:namedview
     pagecolor="#ffffff"
     bordercolor="#666666"
     borderopacity="1"
     objecttolerance="10"
     gridtolerance="10"
     guidetolerance="10"
     inkscape:pageopacity="0"
     inkscape:pageshadow="2"
     inkscape:window-width="1366"
     inkscape:window-height="744"
     id="namedview5692"
     showgrid="false"
     inkscape:zoom="2.130036"
     inkscape:cx="-30.749809"
     inkscape:cy="55.398125"
     inkscape:window-x="0"
     inkscape:window-y="24"
     inkscape:window-maximized="1"
     inkscape:current-layer="svg5678" /><g
     id="g4137"
     transform="translate(-1.8420558e-7,5.6815)"><path
       inkscape:connector-curvature="0"
       style="fill:#444444;fill-opacity:1"
       id="path5680"
       d="M 97.7285,0 2.2734996,0 C 1.0174996,0 4.9963158e-4,1.017 4.9963158e-4,2.273 l 0,68.208 c 0,0.604 0.23999999842,1.183 0.66799999842,1.609 0.42599997,0.426 1.00299997,0.663 1.60499997,0.663 0.002,0 0.004,0 0.006,0 L 10.3545,72.729 c -0.6080004,1.969 -1.2190004,4.006 -1.7930004,6.018 -0.459,1.602 -0.267,3.289 0.546,4.749 0.81,1.461 2.1440004,2.517 3.7510004,2.975 0.521,0.155 1.112,0.239 1.711,0.239 1.378,0 2.679,-0.462 3.735,-1.249 l -0.091,0.501 c -0.222,1.234 0.599,2.417 1.835,2.639 0.135,0.024 0.271,0.036 0.404,0.036 1.079,0 2.038,-0.771 2.235,-1.871 l 4.113,-22.87 c 0.209,-1.159 -0.501,-2.284 -1.638,-2.595 -1.143,-0.304 -2.319,0.3 -2.73,1.4 l -1.782,4.787 c -1.385,3.522 -3.101,8.74 -4.443,13.441 -0.213,0.746 -0.895,1.234 -1.638,1.234 -0.153,0 -0.311,-0.019 -0.468,-0.067 -0.905,-0.257 -1.429,-1.198 -1.169,-2.104 0.732,-2.57 3.434,-11.736 5.349,-16.5 0.943,-2.339 1.882,-4.248 2.672,-5.042 2.694,-2.694 5.447,-2.771 5.75,-2.771 l 11.364,0 c 0.004,0 0.007,0 0.011,0 l 3.389,0 c 0,0 0.006,0 0.009,0 l 6.818,0 c 0.004,0 0.006,0 0.011,0 l 3.736,0 10.853,-13.023 c 0.338,-0.404 0.821,-0.613 1.308,-0.613 0.386,0 0.774,0.129 1.094,0.396 0.724,0.604 0.821,1.678 0.218,2.401 l -11.366,13.639 c -0.324,0.391 -0.804,0.612 -1.31,0.612 0,0 -0.225,0 -0.57,0 -0.335,0 -0.788,0 -1.274,0 l -5.615,0 c -0.674,0 -1.316,0.3 -1.747,0.819 -0.433,0.52 -0.61,1.203 -0.488,1.866 l 4.617,25 c 0.202,1.095 1.158,1.86 2.232,1.86 0.138,0 0.275,-0.012 0.415,-0.038 1.234,-0.229 2.051,-1.414 1.822,-2.647 l -2.437,-13.197 47.934,0 c 1.256,0 2.272,-1.017 2.272,-2.272 l 0,-68.209 C 100.0005,1.017 98.9835,0 97.7285,0 Z m -2.274,68.209 -46.501,0 -0.844,-4.572 4.16,0 0.57,0 c 1.859,0 3.608,-0.817 4.801,-2.246 l 11.363,-13.637 c 1.07,-1.282 1.576,-2.903 1.425,-4.567 -0.15,-1.66 -0.938,-3.165 -2.222,-4.235 -1.127,-0.937 -2.548,-1.452 -4.006,-1.452 -1.86,0 -3.611,0.821 -4.801,2.25 l -9.488,11.386 -0.868,0 -0.004,0 -0.746,0 -6.818,0 -0.739,0 -0.006,0 -1.914,0 -0.004,0 -0.746,0 -11.364,0 c -2.35,0 -5.939,1.078 -8.964,4.102 -0.521,0.523 -1.7,1.7 -3.697,6.627 -0.573,1.409 -1.381,3.702 -2.266,6.398 -0.138,-0.024 -0.264,-0.082 -0.411,-0.082 -0.002,0 -0.004,0 -0.007,0 l -6.8120004,0.021 0,-63.657 90.9090004,0 0,63.664 z" /><path
       style="fill:#444444;fill-opacity:1"
       id="path5682"
       d="m 39.331,17.951 29.623,0 c 1.256,0 2.272,-1.017 2.272,-2.273 0,-1.256 -1.017,-2.272 -2.272,-2.272 l -29.623,0 c -1.256,0 -2.273,1.017 -2.273,2.272 0,1.257 1.017,2.273 2.273,2.273 z"
       inkscape:connector-curvature="0" /><path
       style="fill:#444444;fill-opacity:1"
       id="path5684"
       d="m 51.362,27.197 c 0,1.256 1.017,2.273 2.273,2.273 l 36.203,0 c 1.257,0 2.273,-1.017 2.273,-2.273 0,-1.256 -1.017,-2.272 -2.273,-2.272 l -36.202,0 c -1.257,0 -2.274,1.016 -2.274,2.272 z"
       inkscape:connector-curvature="0" /><path
       style="fill:#444444;fill-opacity:1"
       id="path5686"
       d="m 34.655,48.864 c 5.953,0 10.795,-4.843 10.795,-10.796 0,-5.953 -4.843,-10.795 -10.795,-10.795 -5.952,0 -10.795,4.843 -10.795,10.795 0,5.952 4.842,10.796 10.795,10.796 z m 0,-17.046 c 3.447,0 6.25,2.803 6.25,6.25 0,3.447 -2.803,6.25 -6.25,6.25 -3.447,0 -6.25,-2.803 -6.25,-6.25 0,-3.447 2.803,-6.25 6.25,-6.25 z"
       inkscape:connector-curvature="0" /></g><path
     d="m 49.741211,49.696289 c 0.165497,0.193562 0.335633,0.400412 0.517578,0.607422 l 0,-0.607422 -0.517578,0 z"
     id="text5688"
     inkscape:connector-curvature="0" /></svg>